<?xml version="1.0" standalone="no"?>
<!DOCTYPE svg PUBLIC "-//W3C//DTD SVG 20010904//EN"
 "http://www.w3.org/TR/2001/REC-SVG-20010904/DTD/svg10.dtd">
<svg version="1.0" xmlns="http://www.w3.org/2000/svg"
 width="128.000000pt" height="128.000000pt" viewBox="0 0 128.000000 128.000000"
 preserveAspectRatio="xMidYMid meet">
<metadata>
Created by potrace 1.11, written by Peter Selinger 2001-2013
</metadata>
<g transform="translate(0.000000,128.000000) scale(0.100000,-0.100000)"
fill="#000000" stroke="none">
<path d="M646 1224 c-10 -27 -24 -62 -32 -77 -8 -16 -14 -34 -14 -41 0 -7 -23
-37 -50 -68 -32 -36 -46 -59 -39 -64 6 -3 14 -2 18 3 6 10 41 25 41 18 0 -2
-16 -16 -36 -31 -30 -23 -37 -25 -49 -13 -7 8 -16 36 -20 64 -7 59 -15 71 -16
27 -2 -35 -2 -35 -12 -74 -5 -19 -16 -28 -37 -33 -37 -8 -39 -21 -5 -29 16 -4
30 -19 39 -39 15 -36 6 -57 -25 -57 -12 0 -19 -7 -19 -20 0 -20 9 -24 43 -21
9 1 17 -3 17 -8 0 -6 -5 -11 -12 -11 -9 0 -9 -3 -1 -11 16 -16 0 -31 -60 -57
-62 -27 -62 -49 1 -54 26 -3 55 -1 65 4 18 9 18 8 2 -16 -15 -23 -109 -76
-134 -76 -21 0 -61 -24 -61 -37 0 -13 17 -17 52 -14 10 1 26 -3 37 -8 14 -8
28 -8 47 -1 15 6 29 8 32 5 9 -8 -30 -33 -61 -39 -39 -8 -136 -68 -137 -84 0
-7 10 -17 22 -22 14 -5 17 -9 8 -10 -23 -2 -50 -8 -66 -14 -17 -7 -18 -38 -2
-54 9 -9 8 -12 -5 -12 -23 0 -67 -47 -61 -65 8 -20 50 -18 101 5 24 10 45 15
48 10 3 -4 22 -4 42 1 55 12 60 11 59 -12 -2 -42 29 -47 89 -15 30 16 55 33
55 38 0 6 6 8 14 5 8 -3 17 -1 20 6 4 7 4 0 1 -16 -4 -19 -1 -29 10 -33 12 -5
15 -23 15 -84 0 -62 3 -79 16 -84 29 -11 152 -7 160 6 4 6 8 46 9 87 3 103 2
102 27 52 25 -51 72 -85 99 -70 15 8 17 14 8 36 -9 24 -7 24 31 -11 23 -20 50
-36 64 -36 29 0 57 25 50 44 -3 7 2 16 12 20 13 5 15 14 10 41 -7 33 -6 34 16
27 40 -14 84 0 93 29 8 24 -18 48 -52 49 -13 0 -23 5 -23 11 0 5 5 7 10 4 6
-3 13 1 16 10 7 17 -22 55 -41 55 -7 0 -18 7 -25 15 -11 13 -7 15 23 15 36 0
59 17 39 29 -5 3 -11 15 -14 26 -2 13 -11 20 -26 19 -18 -1 -21 2 -16 18 4 14
0 21 -15 25 -12 3 -21 9 -21 14 0 5 -6 9 -14 9 -8 0 -18 5 -21 11 -4 6 0 9 11
7 32 -5 29 31 -3 45 -34 15 -40 59 -9 67 32 9 28 25 -10 40 l-36 15 28 12 c16
7 42 12 58 13 16 0 27 3 24 6 -6 5 -51 11 -110 13 -19 1 -26 5 -22 15 3 8 -9
23 -32 37 -21 13 -42 27 -46 30 -5 3 -6 13 -2 22 5 13 10 14 26 6 33 -18 47 6
17 30 -61 48 -68 57 -72 99 -4 42 -17 71 -17 39 0 -9 -4 -17 -9 -17 -13 0 -67
108 -85 170 -25 85 -31 89 -50 34z m-106 -332 c0 -9 -36 -44 -57 -56 -13 -7
-12 11 2 35 14 22 55 38 55 21z m494 -423 c-4 -7 -44 0 -44 7 0 2 11 3 24 2
14 -1 23 -5 20 -9z"/>
</g>
</svg>
